<svg version="1.2" xmlns="http://www.w3.org/2000/svg" viewBox="0 0 56 56" width="56" height="56">
	<title>usdtton-svg</title>
	<style>
		.s0 { fill: #000000 } 
		.s1 { fill: #ffffff } 
	</style>
	<path id="Layer" class="s0" d="m28 0c15.5 0 28 12.5 28 28 0 15.5-12.5 28-28 28-15.5 0-28-12.5-28-28 0-15.5 12.5-28 28-28z"/>
	<path id="Layer" fill-rule="evenodd" class="s1" d="m35.8 37.5h-15.7c-0.6 0-1.1-0.1-1.7-0.4-0.7-0.3-1.1-0.8-1.3-1.2q-0.1 0-0.1-0.1-0.4-0.8-0.4-1.7c0-0.6 0.1-1.3 0.4-1.8l9.9-17.1c0.3-0.4 0.7-0.6 1.1-0.6 0.4 0 0.8 0.2 1.1 0.6l9.7 17c0.2 0.4 0.6 1 0.6 1.7 0.1 0.7-0.1 1.4-0.4 1.9-0.3 0.6-0.9 1.1-1.5 1.4-0.6 0.3-1.3 0.3-1.7 0.3zm-6.6-2.4h6.6c0.4 0 0.6-0.1 0.7-0.1q0.2-0.1 0.4-0.4 0.1-0.2 0.1-0.5c0-0.1 0-0.2-0.3-0.6l-7.5-13.1zm-2.4 0v-14.7l-7.7 13.1c-0.1 0.2-0.1 0.4-0.1 0.6q0 0.3 0.1 0.5 0.1 0.2 0.2 0.3 0.1 0.1 0.1 0.1c0.2 0.1 0.4 0.1 0.7 0.1z"/>
</svg>